<?xml version="1.0" encoding="UTF-8"?>
<svg id="Layer_2" data-name="Layer 2" xmlns="http://www.w3.org/2000/svg" viewBox="0 0 129.53 129.53">
  <defs>
    <style>
      .cls-1 {
        fill: #005baa;
        opacity: .25;
      }

      .cls-1, .cls-2 {
        stroke-width: 0px;
      }

      .cls-2 {
        fill: #fff;
      }
    </style>
  </defs>
  <g id="OBJECTS">
    <g>
      <circle class="cls-1" cx="64.76" cy="64.76" r="64.76" transform="translate(-12.84 113.41) rotate(-77.08)"/>
      <path class="cls-2" d="m43.55,58.46c.75,5.59-.49,10.44-2.77,10.83-2.29.39-4.75-3.83-5.51-9.43-.75-5.59.49-10.44,2.77-10.83,2.29-.39,4.75,3.83,5.51,9.43Z"/>
      <path class="cls-2" d="m85.98,58.46c-.75,5.59.49,10.44,2.77,10.83,2.29.39,4.75-3.83,5.51-9.43.75-5.59-.49-10.44-2.77-10.83s-4.75,3.83-5.51,9.43Z"/>
      <path class="cls-2" d="m78.22,89.9v-3.93c7.05-6.19,11.73-17.08,11.73-29.49,0-2.64-.22-5.2-.62-7.67.26-1.24.52-2.47.78-3.71.83-3.96,1.65-8.14.36-11.97-.67-1.99-1.88-3.77-3.28-5.33-4.44-4.94-10.87-7.85-17.45-8.7-6.58-.85-13.31.25-19.59,2.41-3.75,1.29-8.04,4.16-7.28,8.05-1.92-.72-4.09.8-4.83,2.72-.74,1.91-.44,4.05-.14,6.08.65,4.28,1.3,8.56,1.95,12.85-.19,1.72-.29,3.49-.29,5.28,0,12.41,4.68,23.3,11.73,29.49v3.85c-15.73,1.61-29.53,6.06-39.42,12.32,11.73,16.57,31.03,27.39,52.88,27.39s40.87-10.67,52.63-27.04c-9.75-6.33-23.48-10.87-39.17-12.58Z"/>
    </g>
  </g>
</svg>