<svg version="1.2" xmlns="http://www.w3.org/2000/svg" viewBox="0 0 991 87" width="991" height="87"><defs><linearGradient id="P" gradientUnits="userSpaceOnUse"/><linearGradient id="g1" x2="1" href="#P" gradientTransform="matrix(25.08,0,0,25.49,18.52,59.29)"><stop stop-color="#1b4480"/><stop offset=".34" stop-color="#02508e"/><stop offset=".7" stop-color="#00599d"/><stop offset="1" stop-color="#065ca1"/></linearGradient><linearGradient id="g2" x2="1" href="#P" gradientTransform="matrix(18.344,12.85,-7.576,10.815,11.641,38.31)"><stop stop-color="#e42027"/><stop offset=".4" stop-color="#e12027"/><stop offset=".58" stop-color="#db1f28"/><stop offset=".71" stop-color="#cf1f29"/><stop offset=".82" stop-color="#be202d"/><stop offset=".85" stop-color="#b5202e"/><stop offset=".87" stop-color="#b0202c"/><stop offset=".9" stop-color="#9d1e23"/><stop offset=".94" stop-color="#80171a"/><stop offset=".98" stop-color="#5b0b0d"/><stop offset=".99" stop-color="#4e1111"/></linearGradient><linearGradient id="g3" x2="1" href="#P" gradientTransform="matrix(25.08,0,0,25.49,18.52,-149.082)"><stop stop-color="#1b4480"/><stop offset=".34" stop-color="#02508e"/><stop offset=".7" stop-color="#00599d"/><stop offset="1" stop-color="#065ca1"/></linearGradient><linearGradient id="g4" x2="1" href="#P" gradientTransform="matrix(18.344,12.85,-7.576,10.815,11.641,-170.062)"><stop stop-color="#e42027"/><stop offset=".4" stop-color="#e12027"/><stop offset=".58" stop-color="#db1f28"/><stop offset=".71" stop-color="#cf1f29"/><stop offset=".82" stop-color="#be202d"/><stop offset=".85" stop-color="#b5202e"/><stop offset=".87" stop-color="#b0202c"/><stop offset=".9" stop-color="#9d1e23"/><stop offset=".94" stop-color="#80171a"/><stop offset=".98" stop-color="#5b0b0d"/><stop offset=".99" stop-color="#4e1111"/></linearGradient></defs><style>.a{opacity:.2;fill:#838588}.b{fill:url(#g1)}.c{fill:url(#g2)}.d{fill:#065ca1}.e{fill:url(#g3)}.f{fill:url(#g4)}.g{fill:#838588}</style><path class="a" d="m251.7 0.1h3.2v86.9h-3.2z"/><path class="b" d="m43.5 43.9l-5.9-7-1.3-1.5-1.3-1.6q0 0.3 0 0.6c0 0.2 0 0.4 0 0.6v0.3c0 3.2-1.2 6.3-3.4 8.6l-13.1 15.4h10.5c0.9-0.1 1.7-0.5 2.3-1.1l0.1-0.1 2.8-3.2q0-0.1 0.1-0.2l3.2-3.8 6-7z"/><path class="c" d="m18.5 28.5l13.2 15.4c2.1-2.3 3.4-5.4 3.4-8.6v-0.3q0-0.3-0.1-0.6 0-0.3 0-0.6l-0.8-0.9-2.7-3.2c-0.7-0.7-1.7-1.2-2.7-1.2z"/><path fill-rule="evenodd" class="d" d="m28.5 15.3c15.8 0 28.6 12.8 28.6 28.6 0 15.7-12.8 28.5-28.6 28.5-15.7 0-28.5-12.8-28.5-28.5 0-15.8 12.8-28.6 28.5-28.6zm0 51c12.4 0 22.5-10 22.5-22.4 0-12.4-10.1-22.4-22.5-22.4-12.3 0-22.4 10-22.4 22.4 0 12.4 10.1 22.4 22.4 22.4z"/><path class="d" d="m195.7 14.9q-2.3-0.2-4.4-0.2-1.7 0-3.7 0.2-2.1 0.2-3.6 0.4l-9.8 22.3-9.5-22.4h-3.1l-6 12.4 11.9 24.4v20.4h14.1v-20.4q2.1-4.3 4.4-8.9l4.6-9.4q2.2-4.7 4.5-9.4 2.2-4.6 4.3-9c-0.9-0.1-2.1-0.3-3.7-0.4z"/><path class="d" d="m105.6 15.3l-9.8 22.2-9.5-22.2q-1.8-0.3-3.8-0.5-2-0.1-4.1-0.1-1.4 0-3.5 0.2c-1.4 0.1-2.7 0.3-3.7 0.4l17.9 36.7v20.4h14.1v-20.4q2.1-4.3 4.4-9l4.5-9.3q2.3-4.7 4.5-9.4 2.3-4.7 4.3-9c-0.9-0.1-14.3-0.1-15.3 0z"/><path class="d" d="m158.9 16.3l0.6-1.1h-36.3l-0.6 1.1q-2.1 4.3-4.3 9-0.6 1.2-1.1 2.4h11.8v44.8h14.2v-44.8h10.3q0.6-1.2 1.1-2.4 2.3-4.7 4.3-9z"/><path class="a" d="m251.7-208.3h3.2v86.9h-3.2z"/><path class="e" d="m43.5-164.5l-5.9-7-1.3-1.5-1.3-1.6q0 0.3 0 0.6c0 0.3 0 0.4 0 0.6v0.3c0 3.2-1.2 6.3-3.4 8.6l-13.1 15.4h10.5c0.9-0.1 1.7-0.4 2.3-1.1l0.1-0.1 2.8-3.2q0-0.1 0.1-0.2l3.2-3.8 6-7z"/><path class="f" d="m18.5-179.9l13.2 15.4c2.1-2.3 3.4-5.3 3.4-8.5v-0.4q0-0.2-0.1-0.5 0-0.3 0-0.7l-0.8-0.9-2.7-3.1c-0.7-0.8-1.7-1.3-2.7-1.3z"/><path fill-rule="evenodd" class="d" d="m28.5-193c15.8 0 28.6 12.7 28.6 28.5 0 15.8-12.8 28.5-28.6 28.5-15.7 0-28.5-12.7-28.5-28.5 0-15.8 12.8-28.5 28.5-28.5zm0 50.9c12.4 0 22.5-10 22.5-22.4 0-12.4-10.1-22.4-22.5-22.4-12.3 0-22.4 10-22.4 22.4 0 12.4 10.1 22.4 22.4 22.4z"/><path class="d" d="m195.7-193.5q-2.3-0.2-4.4-0.2-1.7 0-3.7 0.2-2.1 0.2-3.6 0.5l-9.8 22.2-9.5-22.4h-3.1l-6 12.5 11.9 24.4v20.4h14.1v-20.4q2.1-4.3 4.4-9l4.6-9.4q2.2-4.6 4.5-9.3 2.2-4.7 4.3-9c-0.9-0.2-2.1-0.3-3.7-0.5z"/><path class="d" d="m105.6-193.1l-9.8 22.3-9.5-22.3q-1.8-0.3-3.8-0.5-2-0.1-4.1-0.1-1.4 0-3.5 0.2c-1.4 0.1-2.7 0.3-3.7 0.4l17.9 36.8v20.3h14.1v-20.3q2.1-4.3 4.4-9l4.5-9.4q2.3-4.7 4.5-9.4 2.3-4.6 4.3-8.9c-0.9-0.2-14.3-0.2-15.3-0.1z"/><path class="d" d="m158.9-192l0.6-1.2h-36.3l-0.6 1.2q-2.1 4.3-4.3 8.9-0.6 1.2-1.1 2.4h11.8v44.8h14.2v-44.8h10.3q0.6-1.2 1.1-2.4 2.3-4.6 4.3-9z"/><path fill-rule="evenodd" class="g" d="m305.4-193.1q3.8-0.6 7.3-0.9 3.6-0.3 7.1-0.3 6.5 0 11.2 1.2 4.8 1.2 7.9 3.6 3 2.5 4.5 6.3 1.4 3.9 1.4 9.2 0 10.5-5.9 15.3-6 4.9-18.9 4.9h-2.3q-1.1 0-2.3-0.1v18h-10v-57.2zm16 31.2q3.6 0 6.1-0.7 2.5-0.6 4.1-2.1 1.5-1.4 2.3-3.7 0.7-2.4 0.7-5.7 0-6.5-2.9-9.3-3-2.7-10.2-2.7-1.5 0-3.1 0.1-1.7 0.2-3 0.4v23.3q1.2 0.2 2.9 0.3 1.7 0.1 3.1 0.1z"/><path fill-rule="evenodd" class="g" d="m367.6-135.2q-9.2 0-13.9-5.4-4.8-5.3-4.8-15.8 0-10.9 4.7-16.6 4.7-5.6 13.9-5.6 15.5 0 15.5 19 0 2-0.2 3.3-0.1 1.3-0.3 2.7h-23.8q0.4 6 2.6 8.4 2.3 2.5 7 2.5 2.7 0 6-0.6 3.4-0.5 6.7-1.6l0.4 7.3q-2.9 1.1-6.6 1.8-3.7 0.6-7.2 0.6zm-0.4-36.1q-4 0-6 2.7-2.1 2.8-2.4 8.7h15.4q-0.2-6.1-1.8-8.8-1.6-2.6-5.2-2.6z"/><path class="g" d="m390.1-177.9h8.4l0.5 5.7h0.5q0.9-0.8 2.3-1.7 1.3-0.9 3-1.8 1.6-0.9 3.4-1.7 1.7-0.8 3.4-1.2h2.3v9.1h-3.7q-2.8 0.4-5.7 1.5-2.8 1.1-4.5 2.4v29.7h-9.8v-42z"/><path class="g" d="m422.7-169.7h-6.9v-8.2h7v-2.4q0-5.2 1-8.7 1-3.6 3.3-5.8 2.3-2.1 6.2-3.2 3.9-1 9.6-1.3l0.5 7.5q-3.3 0.2-5.4 0.8-2.1 0.5-3.3 1.7-1.2 1.3-1.7 3.2-0.5 1.9-0.5 5v3.2h9.1v8.2h-9.1v33.8h-9.8v-33.8z"/><path fill-rule="evenodd" class="g" d="m463.5-135.1q-9.2 0-14-5.6-4.7-5.5-4.7-16.2c0-7.1 1.6-12.6 4.7-16.3q4.8-5.5 14-5.5 9.2 0 13.9 5.5 4.8 5.6 4.8 16.3 0 10.7-4.8 16.3-4.7 5.5-13.9 5.5zm0-7.7q2.4 0 4.1-0.8 1.7-0.7 2.8-2.3 1-1.7 1.5-4.4 0.4-2.6 0.5-6.6-0.1-4-0.6-6.7-0.5-2.7-1.5-4.3-1.1-1.6-2.8-2.4-1.6-0.7-4-0.7-2.5 0-4.1 0.7-1.7 0.8-2.8 2.4-1 1.6-1.5 4.3-0.4 2.7-0.5 6.7c0 2.6 0.2 4.8 0.5 6.6q0.5 2.7 1.5 4.3 1.1 1.7 2.8 2.4 1.6 0.8 4.1 0.8z"/><path class="g" d="m489.4-177.9h8.3l0.6 5.7h0.4q1-0.8 2.3-1.7 1.4-0.9 3-1.8 1.7-0.9 3.4-1.7 1.8-0.8 3.4-1.2h2.4v9.1h-3.8q-2.8 0.4-5.6 1.5-2.9 1.1-4.6 2.4v29.7h-9.8v-42z"/><path class="g" d="m518.5-177.9h8.1l0.6 4.6h0.3q4.4-2.9 7.6-4.2 3.2-1.2 6.4-1.2 6.6 0 8.9 5.4h0.4q4.2-2.9 7.4-4.2 3.2-1.2 6.5-1.2 4.9 0 7.5 2.8 2.5 2.9 2.5 8.5v31.5h-9.6v-28.3q0-3.2-1.2-4.7-1.2-1.4-3.7-1.4-1.7 0-4 0.8-2.3 0.8-4.8 2.3v31.3h-9.6v-28.3q0-3.2-1.2-4.7-1.1-1.4-3.6-1.4-1.9 0-4.2 0.8-2.2 0.8-4.6 2.4v31.2h-9.7v-42z"/><path fill-rule="evenodd" class="g" d="m592.3-135.5q-5.2 0-8.1-3.2-3-3.1-3-8.6 0-6 3.7-9.2 3.7-3.2 11.5-3.8l8.1-0.6v-1.9q0-2.4-0.3-4-0.4-1.6-1.3-2.6-0.9-1-2.5-1.4-1.6-0.4-4-0.4-1.1 0-2.6 0.1-1.4 0.1-3 0.3-1.5 0.2-3.1 0.4-1.6 0.3-2.9 0.5l-0.7-7.2q3.7-0.7 7.2-1.1 3.5-0.4 6.6-0.4 8.5 0 12.5 3.3 4 3.3 4 10.3v29.1h-8.1l-0.9-5.1h-0.6q-2.6 2.4-5.8 3.9-3.2 1.6-6.7 1.6zm3.8-7.2q0 0 0 0 0 0 0 0zm4.3-1.2q2.3-1.2 4.1-2.3v-8.8l-5.7 0.5q-4.2 0.4-6 1.9-1.8 1.5-1.8 4.4 0 5.5 5.1 5.5 2 0 4.3-1.2z"/><path class="g" d="m623.1-177.9h8.3l0.6 4.6h0.3q5-2.9 8.4-4.2 3.3-1.2 6.6-1.2 4.9 0 7.4 2.8 2.6 2.9 2.6 8.5v31.5h-9.8v-28.3q0-3.4-1.2-4.8-1.2-1.4-3.5-1.4-2.1 0-4.6 0.9-2.6 0.9-5.3 2.4v31.2h-9.8v-42z"/><path class="g" d="m683.9-135.2q-9.8 0-14.7-5.3-4.9-5.3-4.9-16.4c0-7.4 1.6-12.8 4.9-16.4q4.9-5.3 14.7-5.3 4.6 0 8.9 1.1v7.8q-2.2-0.4-4.1-0.6-2-0.2-3.8-0.2-5.6 0-8.1 3.1-2.5 3.2-2.5 10.4 0 7.2 2.4 10.5 2.5 3.3 8.1 3.3 2 0 3.9-0.2 1.9-0.2 4.1-0.7v7.7q-1.8 0.6-4.2 0.9-2.4 0.3-4.7 0.3z"/><path fill-rule="evenodd" class="g" d="m716.3-135.2q-9.2 0-14-5.4-4.8-5.3-4.8-15.8 0-10.9 4.7-16.6 4.7-5.6 13.9-5.6 15.5 0 15.5 19 0 2-0.1 3.3-0.1 1.3-0.4 2.7h-23.7q0.3 6 2.6 8.4 2.2 2.5 7 2.5 2.6 0 6-0.6 3.3-0.5 6.7-1.6l0.3 7.3q-2.8 1.1-6.5 1.8-3.7 0.6-7.2 0.6zm-0.5-36.1q-4 0-6 2.7-2 2.8-2.4 8.7h15.4q-0.1-6.1-1.8-8.8-1.6-2.6-5.2-2.6z"/><path fill-rule="evenodd" class="g" d="m772.5-156.1q-1.1 0.1-2.4 0h-1.2q-0.7 0.1-1.4 0-0.8 0-1.5-0.1-0.8 0-1.2-0.1v20.4h-10v-57.2q7-1.2 14.3-1.2 13.2 0 19.1 4.6 6 4.5 6 14.6 0 13-10.6 17l12.2 22.2h-10.7l-10.3-20.3q-1.1 0.1-2.3 0.1zm-1.7-7.9q7.2 0 10.2-2.5 3-2.6 3-8.6 0-6-3-8.5-3-2.5-10.1-2.5-1.2 0-2.9 0.1-1.7 0.2-3.2 0.3v21.3q1.2 0.1 2.8 0.3 1.6 0.1 3.2 0.1z"/><path fill-rule="evenodd" class="g" d="m817.9-135.2q-9.1 0-13.9-5.4-4.8-5.3-4.8-15.8 0-10.9 4.7-16.6 4.7-5.6 13.9-5.6 15.5 0 15.5 19 0 2-0.1 3.3-0.2 1.3-0.4 2.7h-23.7q0.3 6 2.5 8.4 2.3 2.5 7 2.5 2.7 0 6-0.6 3.4-0.5 6.7-1.6l0.4 7.3q-2.9 1.1-6.6 1.8-3.7 0.6-7.2 0.6zm-0.4-36.1q-4 0-6 2.7-2 2.8-2.4 8.7h15.4q-0.2-6.1-1.8-8.8-1.6-2.6-5.2-2.6z"/><path class="g" d="m835.8-177.2v-0.7h10.2l8.1 27.6 1.4 6h0.7l1.3-6 8.1-27.6h10.1v0.7l-14 41.3h-11.9z"/><path class="g" d="m885.8-185.3q-2.9 0-4.3-1.3-1.3-1.3-1.3-4.2 0-2.9 1.3-4.2 1.4-1.3 4.3-1.3 5.7 0 5.7 5.5 0 2.8-1.3 4.2-1.4 1.4-4.4 1.4zm-4.9 7.3h9.7v42h-9.7z"/><path fill-rule="evenodd" class="g" d="m916.7-135.2q-9.2 0-13.9-5.4-4.8-5.3-4.8-15.8 0-10.9 4.7-16.6 4.7-5.6 13.9-5.6 15.5 0 15.5 19 0 2-0.1 3.3-0.2 1.3-0.4 2.7h-23.7q0.3 6 2.5 8.4 2.3 2.5 7 2.5 2.7 0 6-0.6 3.4-0.5 6.7-1.6l0.4 7.3q-2.9 1.1-6.6 1.8-3.7 0.6-7.2 0.6zm-0.4-36.1q-4 0-6 2.7-2 2.8-2.4 8.7h15.4q-0.2-6.1-1.8-8.8-1.6-2.6-5.2-2.6z"/><path class="g" d="m935.8-177.6v-0.3h9.2l5.1 26.4 1 5.5h0.7l1.1-5.5 6-26.4h9.3l6.1 26.4 1.1 5.5h0.7l1-5.5 5-26.4h9.2v0.3l-9.6 41.7h-11l-6.1-25.6-0.7-4.6h-0.7l-0.8 4.6-6 25.6h-10.9l-9.7-41.7z"/><path class="g" d="m305.3 72v-51q6.7-1.4 13-1.4 10.2 0 15.3 4.5 5.1 4.4 5.1 13.9 0 9-5.1 13.6-5.1 4.7-15.1 4.7-2-0.1-4.6-0.2v15.9zm13.3-22.8q6 0 8.8-2.6 2.9-2.7 2.9-8.5 0-6-2.8-8.7-2.7-2.8-8.5-2.8-2.7 0-5.1 0.5v21.8q2 0.3 4.7 0.3zm26.2 22.8v-38.2h7l0.7 5.3h0.4q1.4-3 3.8-4.3 2.4-1.4 5.4-1.4 1.2 0 2.4 0.2v7.9q-1.2-0.2-2.9-0.2-2.6 0-4.8 1.2-2.3 1.1-3.5 3.2v26.3zm49.9-19v2.6h-19.9q0.1 3.9 1.1 6.1 1 2.2 3.1 3.2 2.1 0.9 5.6 0.9 3.6 0 8.4-1.3v6.9q-2.6 0.7-4.8 1-2.2 0.3-4.6 0.3-6.1 0-9.9-2-3.8-2-5.7-6.4-1.8-4.3-1.8-11.5 0-9.8 3.8-14.7 3.9-4.9 11-4.9 13.7 0 13.7 19.8zm-13.8-14q-1.9 0-3.3 1-1.3 1-2 3.4-0.8 2.5-0.8 6.8h12q-0.1-4.3-0.8-6.8-0.7-2.4-1.9-3.4-1.3-1-3.2-1zm32.1 24.8l8.3-30h8.4l-11.3 38.2h-11.1l-11.3-38.2h8.8zm47.7-10.8v2.6h-20q0.1 3.9 1.2 6.1 1 2.2 3.1 3.2 2.1 0.9 5.6 0.9 3.6 0 8.3-1.3v6.9q-2.6 0.7-4.8 1-2.2 0.3-4.5 0.3-6.1 0-10-2-3.8-2-5.7-6.4-1.8-4.3-1.8-11.5 0-9.8 3.8-14.7 3.9-4.9 11-4.9 13.8 0 13.8 19.8zm-13.8-14q-2 0-3.3 1-1.3 1-2.1 3.4-0.8 2.5-0.8 6.8h12q0-4.3-0.7-6.8-0.7-2.4-2-3.4-1.2-1-3.1-1zm18.8 33v-38.2h7.1l0.6 4.1h0.5q1.8-2.3 4.2-3.5 2.5-1.2 5.5-1.2 4.8 0 7.7 3.1 2.9 3 2.9 9.8v25.9h-8.5v-25.2q0-3.3-1.3-4.6-1.3-1.4-3.7-1.4-1.8 0-3.6 0.9-1.8 0.9-2.9 2.7v27.6zm52.3-6.6q1.3 0 3.7-0.5v7.1q-2.8 0.7-5.8 0.7-5.9 0-9-3.2-3.2-3.2-3.2-10.1v-18.8h-5.8v-6.8h5.8l1.5-13.6h7v13.6h9.2v6.8h-9.2v17.8q0 2.6 0.6 4.2 0.6 1.5 1.9 2.1 1.2 0.7 3.3 0.7zm17.2 6.6h-8.5v-38.2h8.5zm-4.3-44.7q-2.7 0-4.1-1.3-1.4-1.3-1.4-3.7 0-2.4 1.4-3.7 1.4-1.3 4.1-1.3 2.7 0 4.1 1.3 1.4 1.4 1.4 3.7 0 2.4-1.4 3.7-1.4 1.3-4.1 1.3zm25 36.5l8.3-30h8.4l-11.3 38.2h-11.1l-11.3-38.2h8.8zm46.7-10.7v2.5h-20q0.1 3.9 1.2 6.1 1 2.2 3.1 3.2 2.1 0.9 5.6 0.9 3.6 0 8.3-1.3v6.9q-2.5 0.7-4.8 1-2.2 0.3-4.5 0.3-6.1 0-10-2-3.8-2-5.6-6.3-1.9-4.4-1.9-11.6 0-9.8 3.8-14.7 3.9-4.9 11-4.9 13.8 0 13.8 19.9zm-13.8-14q-2 0-3.3 0.9-1.3 1-2.1 3.5-0.8 2.4-0.8 6.7h12q0-4.3-0.7-6.7-0.7-2.5-2-3.5-1.2-0.9-3.1-0.9zm58.8 16.1l13.6-35h10.5v51.8h-8v-39.3l-12.7 31.9h-7l-12.7-31.3v38.7h-8.1v-51.8h10.5zm44.1-21.9q5 0 8.2 1.4 3.2 1.4 4.7 4.6 1.5 3.1 1.5 8.5v24.3h-6.9l-0.6-4.1h-0.5q-1.4 2.4-3.6 3.6-2.3 1.2-5.2 1.2-3.2 0-5.5-1.3-2.4-1.3-3.7-3.7-1.3-2.5-1.3-5.8 0-5.4 3.2-8.4 3.3-2.9 10.3-3.5l5.6-0.5v-2.2q0-2.7-0.8-4.3-0.8-1.6-2.5-2.2-1.6-0.7-4.4-0.7-2.1 0-4.4 0.4-2.4 0.3-4.6 1v-6.9q2.3-0.6 5.1-1 2.9-0.4 5.4-0.4zm0.4 33q1.6 0 3.1-0.7 1.5-0.8 2.7-2.5v-8.3l-4.7 0.5q-6.1 0.5-6.1 5.7 0 2.7 1.3 4 1.3 1.3 3.7 1.3zm30.1 5.8h-8.6v-38.2h8.6zm-4.3-44.7q-2.7 0-4.1-1.3-1.4-1.3-1.4-3.7 0-2.4 1.4-3.7 1.4-1.3 4.1-1.3 2.7 0 4.1 1.3 1.4 1.4 1.4 3.7 0 2.4-1.4 3.7-1.4 1.3-4.1 1.3zm11.7 44.7v-38.2h7.1l0.7 4.1h0.4q1.8-2.3 4.3-3.4 2.5-1.3 5.4-1.3 4.9 0 7.7 3.1 2.9 3.1 2.9 9.8v25.9h-8.5v-25.2q0-3.2-1.3-4.6-1.3-1.4-3.6-1.4-1.9 0-3.7 0.9-1.8 0.9-2.9 2.7v27.6zm51.4-6.6q1.3 0 3.6-0.5v7.1q-2.7 0.7-5.7 0.7-6 0-9.1-3.2-3.1-3.2-3.1-10.1v-18.8h-5.9v-6.8h5.9l1.5-13.6h7v13.6h9.1v6.8h-9.1v17.8q0 2.7 0.6 4.2 0.5 1.5 1.8 2.1 1.3 0.7 3.4 0.7zm34.6-12.4v2.6h-20q0.2 3.9 1.2 6.1 1 2.2 3.1 3.2 2.1 0.9 5.6 0.9 3.6 0 8.3-1.3v6.9q-2.5 0.7-4.8 1-2.2 0.3-4.5 0.3-6.1 0-10-2-3.8-2-5.6-6.4-1.9-4.3-1.9-11.5 0-9.8 3.9-14.7 3.8-4.9 10.9-4.9 13.8 0 13.8 19.8zm-13.8-14q-2 0-3.3 1-1.3 1-2.1 3.4-0.7 2.5-0.8 6.8h12q0-4.3-0.7-6.8-0.7-2.4-2-3.4-1.2-1-3.1-1zm19.8 33v-38.2h7.1l0.6 4.1h0.5q1.8-2.3 4.2-3.4 2.5-1.3 5.5-1.3 4.9 0 7.7 3.1 2.9 3.1 2.9 9.8v25.9h-8.5v-25.2q0-3.2-1.3-4.6-1.3-1.4-3.7-1.4-1.8 0-3.6 0.9-1.8 0.9-2.9 2.7v27.6zm47.1-38.8q5 0 8.1 1.4 3.2 1.4 4.7 4.6 1.6 3.1 1.6 8.5v24.3h-7l-0.6-4.1h-0.4q-1.4 2.5-3.7 3.6-2.3 1.2-5.2 1.2-3.1 0-5.5-1.3-2.4-1.3-3.7-3.7-1.3-2.5-1.3-5.8 0-5.4 3.3-8.3 3.2-3 10.2-3.5l5.6-0.6v-2.2q0-2.7-0.8-4.3-0.7-1.5-2.4-2.2-1.7-0.7-4.5-0.7-2 0-4.4 0.4-2.3 0.4-4.5 1.1v-6.9q2.2-0.7 5.1-1.1 2.8-0.4 5.4-0.4zm0.3 33q1.6 0 3.1-0.7 1.6-0.7 2.7-2.5v-8.2l-4.7 0.4q-6.1 0.5-6.1 5.7 0 2.7 1.3 4 1.3 1.3 3.7 1.3zm21.6 5.8v-38.2h7.1l0.6 4.1h0.4q1.9-2.3 4.3-3.4 2.5-1.3 5.5-1.3 4.8 0 7.7 3.1 2.8 3.1 2.8 9.8v25.9h-8.4v-25.2q0-3.2-1.3-4.6-1.3-1.4-3.7-1.4-1.8 0-3.6 0.9-1.9 0.9-2.9 2.7v27.6zm49.5 0.7q-8 0-12.1-4.7-4-4.8-4-15 0-10.4 4.4-15.1 4.5-4.7 13.1-4.7 3.5 0 6.6 0.7v7.1q-2.7-0.6-5.1-0.6-3.6 0-5.9 1.2-2.2 1.1-3.2 3.8-1.1 2.7-1.1 7.4 0 4.8 1 7.6 1 2.8 2.9 4 2 1.1 5.1 1.1 2.7 0 6.3-1.2v7.1q-3.9 1.3-8 1.3zm39.4-19.7v2.6h-19.9q0.1 3.9 1.1 6.1 1 2.2 3.1 3.2 2.1 0.9 5.6 0.9 3.6 0 8.4-1.3v6.9q-2.6 0.7-4.8 1-2.2 0.3-4.6 0.3-6.1 0-9.9-2-3.8-2-5.7-6.4-1.8-4.3-1.8-11.5 0-9.8 3.8-14.7 3.9-4.9 11-4.9 13.7 0 13.7 19.8zm-13.8-14q-1.9 0-3.3 1-1.3 1-2 3.4-0.8 2.5-0.8 6.8h12q-0.1-4.3-0.8-6.8-0.7-2.4-1.9-3.4-1.3-1-3.2-1z"/></svg>