<?xml version="1.0" encoding="UTF-8"?>
<svg id="Layer_2" data-name="Layer 2" xmlns="http://www.w3.org/2000/svg" xmlns:xlink="http://www.w3.org/1999/xlink" viewBox="0 0 136.43 39.54">
  <defs>
    <style>
      .cls-1 {
        fill: url(#linear-gradient);
      }

      .cls-2 {
        fill: #065ca8;
      }

      .cls-3 {
        fill: url(#linear-gradient-2);
      }
    </style>
    <linearGradient id="linear-gradient" x1="12.68" y1="837.93" x2="29.84" y2="837.93" gradientTransform="translate(0 -816.11)" gradientUnits="userSpaceOnUse">
      <stop offset="0" stop-color="#1b4480"/>
      <stop offset=".34" stop-color="#025095"/>
      <stop offset=".7" stop-color="#0059a4"/>
      <stop offset="1" stop-color="#065ca8"/>
    </linearGradient>
    <linearGradient id="linear-gradient-2" x1="12.96" y1="825.17" x2="24.02" y2="832.91" gradientTransform="translate(0 -816.11)" gradientUnits="userSpaceOnUse">
      <stop offset="0" stop-color="#eb2027"/>
      <stop offset=".4" stop-color="#e82027"/>
      <stop offset=".58" stop-color="#e21f28"/>
      <stop offset=".71" stop-color="#d61f29"/>
      <stop offset=".82" stop-color="#c5202d"/>
      <stop offset=".85" stop-color="#bc202e"/>
      <stop offset=".87" stop-color="#b7202c"/>
      <stop offset=".9" stop-color="#a41e23"/>
      <stop offset=".94" stop-color="#86171a"/>
      <stop offset=".98" stop-color="#5b0b0d"/>
      <stop offset=".99" stop-color="#4e1111"/>
    </linearGradient>
  </defs>
  <g id="Layer_1-2" data-name="Layer 1">
    <g id="Layer_2-2" data-name="Layer 2">
      <g id="Layer_2-2" data-name="Layer 2-2">
        <path class="cls-1" d="m29.8,19.98l-4.08-4.77-.87-1.02-.93-1.09c.02.13.03.27.03.42s.02.27.02.4h0v.21c0,2.17-.84,4.27-2.34,5.86h0l-.02.02-8.97,10.53h7.21c.6-.04,1.17-.31,1.57-.75l.09-.09,1.86-2.17s.06-.07.09-.12l2.22-2.61,4.08-4.77.02-.02v-.03Z"/>
        <path class="cls-3" d="m12.67,9.46l8.98,10.53v.02c1.5-1.57,2.34-3.67,2.34-5.86v-.21c0-.13-.02-.27-.02-.4s-.02-.27-.03-.42l-.52-.61h0l-1.86-2.17h0c-.46-.54-1.14-.85-1.86-.85,0,0-7.03,0-7.03,0Z"/>
        <path class="cls-2" d="m19.53.46C8.74.46,0,9.21,0,19.99s8.74,19.53,19.53,19.53,19.53-8.74,19.53-19.53h0c.02-10.78-8.73-19.53-19.53-19.53t0,0Zm0,34.87c-8.47,0-15.34-6.87-15.34-15.34,0-8.47,6.87-15.34,15.34-15.34s15.34,6.87,15.34,15.34h0c0,8.47-6.87,15.34-15.34,15.34h0Z"/>
        <path class="cls-2" d="m133.91.16c-1.05-.09-2.05-.13-3.01-.13-.76,0-1.62.04-2.55.13-.93.09-1.74.19-2.43.3l-6.72,15.21L112.69.34h-2.14l-4.09,8.53h0l8.14,16.69v13.95h9.69v-13.95c.94-1.96,1.95-4.02,2.98-6.15l3.12-6.4c1.03-2.13,2.07-4.26,3.09-6.4,1.02-2.13,2.01-4.18,2.95-6.15-.63-.1-1.45-.21-2.52-.3Z"/>
        <path class="cls-2" d="m72.27.43l-6.73,15.21L59.07.43c-.84-.15-1.71-.25-2.62-.33-.91-.07-1.84-.1-2.79-.1-.61,0-1.42.04-2.4.13-.97.09-1.83.19-2.52.3l12.21,25.12v13.95h9.67v-13.95c.94-1.96,1.95-4.02,2.98-6.15l3.12-6.4c1.03-2.13,2.07-4.27,3.09-6.4s2.01-4.18,2.95-6.15c-.61-.12-9.81-.12-10.5-.01Z"/>
        <path class="cls-2" d="m108.76,1.14l.37-.78h-24.85l-.37.78c-.94,1.96-1.93,4.02-2.95,6.15-.25.52-.51,1.06-.76,1.6h8.1v30.64h9.69V8.89h7.06c.25-.54.51-1.06.76-1.6,1.02-2.13,2.01-4.18,2.95-6.15Z"/>
      </g>
    </g>
  </g>
</svg>